<svg width="58" height="58" viewBox="0 0 58 58" fill="none" xmlns="http://www.w3.org/2000/svg">
<path d="M27 2C27 0.895431 27.8954 0 29 0C30.1045 0 31 0.895431 31 2V8C31 9.10457 30.1045 10 29 10C27.8954 10 27 9.10457 27 8V2Z" fill="url(#paint0_linear_181_129)"/>
<path d="M27 50C27 48.8954 27.8954 48 29 48C30.1045 48 31 48.8954 31 50V56C31 57.1046 30.1045 58 29 58C27.8954 58 27 57.1046 27 56V50Z" fill="url(#paint1_linear_181_129)"/>
<path d="M40.7679 4.6173C41.3202 3.66072 42.5434 3.33297 43.5 3.88525C44.4566 4.43754 44.7843 5.66072 44.232 6.6173L41.232 11.8135C40.6797 12.77 39.4566 13.0978 38.5 12.5455C37.5434 11.9932 37.2156 10.77 37.7679 9.81346L40.7679 4.6173Z" fill="url(#paint2_linear_181_129)"/>
<path d="M16.7679 46.1865C17.3202 45.2299 18.5434 44.9022 19.5 45.4545C20.4566 46.0068 20.7843 47.2299 20.232 48.1865L17.232 53.3827C16.6797 54.3393 15.4566 54.667 14.5 54.1147C13.5434 53.5624 13.2156 52.3393 13.7679 51.3827L16.7679 46.1865Z" fill="url(#paint3_linear_181_129)"/>
<path d="M51.3827 13.7679C52.3392 13.2157 53.5624 13.5434 54.1147 14.5C54.667 15.4566 54.3392 16.6798 53.3827 17.232L48.1865 20.232C47.2299 20.7843 46.0067 20.4566 45.4545 19.5C44.9022 18.5434 45.2299 17.3202 46.1865 16.7679L51.3827 13.7679Z" fill="url(#paint4_linear_181_129)"/>
<path d="M9.81344 37.7679C10.77 37.2157 11.9932 37.5434 12.5455 38.5C13.0978 39.4566 12.77 40.6798 11.8134 41.232L6.61729 44.232C5.6607 44.7843 4.43752 44.4566 3.88524 43.5C3.33295 42.5434 3.66071 41.3202 4.61729 40.7679L9.81344 37.7679Z" fill="url(#paint5_linear_181_129)"/>
<path d="M56 27C57.1046 27 58 27.8954 58 29C58 30.1046 57.1046 31 56 31H50C48.8954 31 48 30.1046 48 29C48 27.8954 48.8954 27 50 27H56Z" fill="url(#paint6_linear_181_129)"/>
<path d="M8 27C9.10457 27 10 27.8954 10 29C10 30.1046 9.10457 31 8 31H2C0.895431 31 -3.12634e-08 30.1046 0 29C3.12634e-08 27.8954 0.895431 27 2 27H8Z" fill="url(#paint7_linear_181_129)"/>
<path d="M53.3827 40.7679C54.3393 41.3202 54.667 42.5434 54.1147 43.5C53.5624 44.4566 52.3393 44.7843 51.3827 44.232L46.1865 41.232C45.2299 40.6798 44.9022 39.4566 45.4545 38.5C46.0068 37.5434 47.2299 37.2157 48.1865 37.7679L53.3827 40.7679Z" fill="url(#paint8_linear_181_129)"/>
<path d="M11.8135 16.7679C12.77 17.3202 13.0978 18.5434 12.5455 19.5C11.9932 20.4566 10.77 20.7843 9.81346 20.232L4.61731 17.232C3.66072 16.6798 3.33297 15.4566 3.88526 14.5C4.43754 13.5434 5.66072 13.2157 6.61731 13.7679L11.8135 16.7679Z" fill="url(#paint9_linear_181_129)"/>
<path d="M44.2321 51.3827C44.7843 52.3393 44.4566 53.5625 43.5 54.1147C42.5434 54.667 41.3202 54.3393 40.768 53.3827L37.768 48.1865C37.2157 47.23 37.5434 46.0068 38.5 45.4545C39.4566 44.9022 40.6798 45.23 41.2321 46.1865L44.2321 51.3827Z" fill="url(#paint10_linear_181_129)"/>
<path d="M20.2321 9.81348C20.7843 10.7701 20.4566 11.9932 19.5 12.5455C18.5434 13.0978 17.3202 12.7701 16.768 11.8135L13.768 6.61733C13.2157 5.66074 13.5434 4.43756 14.5 3.88528C15.4566 3.33299 16.6798 3.66074 17.2321 4.61733L20.2321 9.81348Z" fill="url(#paint11_linear_181_129)"/>
<defs>
<linearGradient id="paint0_linear_181_129" x1="43.5" y1="54.1147" x2="12.5" y2="0.421182" gradientUnits="userSpaceOnUse">
<stop stop-color="white" stop-opacity="0.5"/>
<stop offset="1" stop-color="#008CFF"/>
</linearGradient>
<linearGradient id="paint1_linear_181_129" x1="43.5" y1="54.1147" x2="12.5" y2="0.421182" gradientUnits="userSpaceOnUse">
<stop stop-color="white" stop-opacity="0.5"/>
<stop offset="1" stop-color="#008CFF"/>
</linearGradient>
<linearGradient id="paint2_linear_181_129" x1="43.5" y1="54.1147" x2="12.5" y2="0.421182" gradientUnits="userSpaceOnUse">
<stop stop-color="white" stop-opacity="0.5"/>
<stop offset="1" stop-color="#008CFF"/>
</linearGradient>
<linearGradient id="paint3_linear_181_129" x1="43.5" y1="54.1147" x2="12.5" y2="0.421182" gradientUnits="userSpaceOnUse">
<stop stop-color="white" stop-opacity="0.5"/>
<stop offset="1" stop-color="#008CFF"/>
</linearGradient>
<linearGradient id="paint4_linear_181_129" x1="43.5" y1="54.1147" x2="12.5" y2="0.421182" gradientUnits="userSpaceOnUse">
<stop stop-color="white" stop-opacity="0.5"/>
<stop offset="1" stop-color="#008CFF"/>
</linearGradient>
<linearGradient id="paint5_linear_181_129" x1="43.5" y1="54.1147" x2="12.5" y2="0.421182" gradientUnits="userSpaceOnUse">
<stop stop-color="white" stop-opacity="0.5"/>
<stop offset="1" stop-color="#008CFF"/>
</linearGradient>
<linearGradient id="paint6_linear_181_129" x1="43.5" y1="54.1147" x2="12.5" y2="0.421182" gradientUnits="userSpaceOnUse">
<stop stop-color="white" stop-opacity="0.5"/>
<stop offset="1" stop-color="#008CFF"/>
</linearGradient>
<linearGradient id="paint7_linear_181_129" x1="43.5" y1="54.1147" x2="12.5" y2="0.421182" gradientUnits="userSpaceOnUse">
<stop stop-color="white" stop-opacity="0.5"/>
<stop offset="1" stop-color="#008CFF"/>
</linearGradient>
<linearGradient id="paint8_linear_181_129" x1="43.5" y1="54.1147" x2="12.5" y2="0.421182" gradientUnits="userSpaceOnUse">
<stop stop-color="white" stop-opacity="0.5"/>
<stop offset="1" stop-color="#008CFF"/>
</linearGradient>
<linearGradient id="paint9_linear_181_129" x1="43.5" y1="54.1147" x2="12.5" y2="0.421182" gradientUnits="userSpaceOnUse">
<stop stop-color="white" stop-opacity="0.5"/>
<stop offset="1" stop-color="#008CFF"/>
</linearGradient>
<linearGradient id="paint10_linear_181_129" x1="43.5" y1="54.1147" x2="12.5" y2="0.421182" gradientUnits="userSpaceOnUse">
<stop stop-color="white" stop-opacity="0.5"/>
<stop offset="1" stop-color="#008CFF"/>
</linearGradient>
<linearGradient id="paint11_linear_181_129" x1="43.5" y1="54.1147" x2="12.5" y2="0.421182" gradientUnits="userSpaceOnUse">
<stop stop-color="white" stop-opacity="0.5"/>
<stop offset="1" stop-color="#008CFF"/>
</linearGradient>
</defs>
</svg>
